<svg xmlns="http://www.w3.org/2000/svg" width="56.6" height="70.565" viewBox="0 0 56.6 70.565">
  <g id="_002-placeholder" data-name="002-placeholder" transform="translate(-47.2)">
    <g id="Group_5" data-name="Group 5" transform="translate(47.2)">
      <path id="Path_5" data-name="Path 5" d="M75.485,0A28.323,28.323,0,0,0,47.2,28.285a27.84,27.84,0,0,0,.5,5.311c.015.1.074.414.192.947a27.857,27.857,0,0,0,1.894,5.577c3.047,7.175,9.749,18.2,24.454,30a2,2,0,0,0,2.515,0c14.69-11.805,21.406-22.826,24.454-30a27.544,27.544,0,0,0,1.894-5.577c.118-.533.178-.843.192-.947a29.088,29.088,0,0,0,.5-5.311A28.367,28.367,0,0,0,75.485,0ZM99.332,32.9c0,.03-.015.059-.015.089-.015.074-.059.3-.133.636v.03a23.485,23.485,0,0,1-1.642,4.823c-.015.015-.015.044-.03.059-2.766,6.554-8.832,16.554-22.028,27.457-13.2-10.9-19.261-20.9-22.028-27.457-.015-.015-.015-.044-.03-.059a25.053,25.053,0,0,1-1.642-4.823v-.03c-.089-.34-.118-.562-.133-.636,0-.03-.015-.059-.015-.1a24.29,24.29,0,1,1,47.694.015Z" transform="translate(-47.2)"/>
      <path id="Path_6" data-name="Path 6" d="M134.959,71.9a17.959,17.959,0,1,0,17.959,17.959A17.987,17.987,0,0,0,134.959,71.9Zm0,31.924a13.965,13.965,0,1,1,13.965-13.965A13.981,13.981,0,0,1,134.959,103.824Z" transform="translate(-106.674 -61.263)"/>
    </g>
  </g>
</svg>
