<svg id="_001-clock" data-name="001-clock" xmlns="http://www.w3.org/2000/svg" width="58.753" height="58.753" viewBox="0 0 58.753 58.753">
  <g id="Group_2" data-name="Group 2">
    <g id="Group_1" data-name="Group 1">
      <path id="Path_3" data-name="Path 3" d="M29.377,0A29.377,29.377,0,1,0,58.753,29.377,29.377,29.377,0,0,0,29.377,0Zm1.26,56.17V51a1.26,1.26,0,1,0-2.521,0V56.17A26.843,26.843,0,0,1,2.584,30.637H7.751a1.26,1.26,0,1,0,0-2.521H2.584A26.843,26.843,0,0,1,28.116,2.584V7.751a1.26,1.26,0,1,0,2.521,0V2.584A26.843,26.843,0,0,1,56.17,28.116H51a1.26,1.26,0,1,0,0,2.521h5.18A26.843,26.843,0,0,1,30.637,56.17Z"/>
    </g>
  </g>
  <g id="Group_4" data-name="Group 4" transform="translate(28.116 14.884)">
    <g id="Group_3" data-name="Group 3">
      <path id="Path_4" data-name="Path 4" d="M193.036,120.693,181,108.456V95.74a1.26,1.26,0,0,0-2.521,0v13.233a1.26,1.26,0,0,0,.365.882l12.388,12.6a1.261,1.261,0,0,0,1.8-1.764Z" transform="translate(-178.48 -94.48)"/>
    </g>
  </g>
</svg>
